<?xml version="1.0" encoding="utf-8"?>
<!-- Generator: Adobe Illustrator 15.1.0, SVG Export Plug-In . SVG Version: 6.00 Build 0)  -->
<!DOCTYPE svg PUBLIC "-//W3C//DTD SVG 1.1//EN" "http://www.w3.org/Graphics/SVG/1.1/DTD/svg11.dtd">
<svg version="1.1" id="Layer_1" xmlns="http://www.w3.org/2000/svg" xmlns:xlink="http://www.w3.org/1999/xlink" x="0px" y="0px"
	 width="150.058px" height="117.151px" viewBox="0 0 150.058 117.151" enable-background="new 0 0 150.058 117.151"
	 xml:space="preserve">
<g>
	<path fill="#FFFFFF" d="M38.279,13.32c-2.103-2.55-5.303-4.013-8.777-4.013c-6.806,0-13.421,5.571-14.75,12.42
		c-0.68,3.504,0.15,6.998,2.28,9.581c2.074,2.515,5.095,3.9,8.508,3.9c6.943,0,13.678-5.576,15.01-12.427
		C41.22,19.328,40.392,15.882,38.279,13.32"/>
	<polygon fill="#FFFFFF" points="11.44,43.381 0,99.828 24.865,99.828 36.306,43.381 	"/>
	<path fill="#FFFFFF" d="M141.881,99.417c-10.53-0.518-19.055-0.978-29.508-4.57c13.313-6.284,36.83-26.573,36.83-57.621
		C149.203,13.917,134.065,0,108.71,0C65.334,0,42.231,37.319,42.231,64.258c0,23.312,15.088,37.227,40.365,37.227
		c3.336,0,6.17-0.163,8.473-0.479c14.418,9.33,25.279,13.705,39.891,16.052l0.572,0.093l18.526-17.311L141.881,99.417z
		 M88.341,83.444c-10.464,0-16.965-7.952-16.965-20.755c0-18.539,9.639-44.647,31.067-44.647c11.688,0,17.618,7.026,17.618,20.884
		C120.062,56.879,109.98,83.444,88.341,83.444"/>
</g>
</svg>
